<svg viewBox="0 0 644.85 410.19" xmlns="http://www.w3.org/2000/svg"><g fill="#fff" opacity=".1"><path d="m14.27 63.89c-10.82-10.82-15.49-20.3-14-28.57 1.91-10.54 14-18.81 35.92-24.61 23.69-6.29 59.75-9.83 106.99-10.53 62.64-1 120 2.19 170.41 9.33 43.84 6.22 83.86 15.84 118.86 28.36 61.45 22 99.78 49.85 132.09 76.79 34.65 28.85 58.41 60.1 70.64 92.84 10.68 28.5 12.52 57.63 5.52 86.55-14.57 60.25-64.92 105.5-105.22 114.55-18.88 4.17-34.44.07-43.77-11.52-39.6-49.36-77.71-90-116.53-124.6-53.53-47.58-108-82.52-161.79-103.8-38.47-15.27-93.83-38.54-138.87-63.36-27.86-15.41-48-29.2-60.25-41.43zm549.49 51.69-.78.92c-32.1-26.73-70.28-54.45-131.31-76.3-34.93-12.45-74.74-22-118.44-28.21-50.34-7.22-107.55-10.4-170-9.41-47.1.71-83 4.31-106.5 10.47-20.9 5.44-32.36 13.08-34.13 22.62-2.9 16.2 22.4 39.46 73.05 67.39 45 24.75 100.19 48 138.59 63.22 54.09 21.42 108.82 56.49 162.49 104.22 39 34.58 77.15 75.45 116.82 124.88 8.76 10.89 23.45 14.62 41.29 10.62 39.53-8.84 89-53.46 103.24-112.72 6.93-28.42 5-57.06-5.45-85.06-12.16-32.4-35.63-63.22-69.86-91.8z"/><path d="m43.4 65.58c-10-10-14.21-18.73-12.8-26.23 3.82-20.36 47-30.83 131.88-32 110.02-.17 201.67 13.65 272.52 41.12 57.49 22.28 92.06 49.22 120.84 75 30.55 25.88 51.48 53.74 62.37 82.73 9.55 25.38 11.17 51.19 5 76.72-4.31 17.61-14.5 43.77-39.1 68.52-17.47 17.6-38.61 30.26-57.92 34.72-19.51 4.52-35.7.49-45.53-11.32-74.51-87.22-157.66-173.63-260.06-215.07-34.72-14.07-84.5-35.43-124-57.42-24.49-13.57-42.31-25.88-53.2-36.77zm528.07 75.42c-5.3-5.3-11-10.61-17.18-15.77-28.64-25.66-63.08-52.46-120.14-74.6-70.5-27.36-161.93-41.15-271.67-41-43.42.52-76.48 3.7-98.22 9.37-19.23 5-29.77 12-31.39 20.64-2.76 14.78 19 35.15 64.84 60.74 39.38 22 89.09 43.28 123.74 57.28 102.82 41.58 186.18 128.2 261 215.74 9.27 11.1 24.61 14.85 43.21 10.53 19-4.38 39.6-16.83 56.78-34.15 13.36-13.51 30.83-36.06 38.47-67.46 6.08-25 4.45-50.41-4.95-75.38-8.5-22.77-23.49-44.94-44.49-65.94z"/><path d="m72.54 67.28q-13.7-13.68-11.67-24c3.6-18.43 43.13-27.83 120.84-28.75 103.29 1.56 189.29 16.62 255.62 44.62 54 22.77 85.7 49.78 109.67 73.18 26.45 22.92 44.69 47.38 54.17 72.84 8.27 22.27 9.83 44.9 4.38 67s-17.55 43.16-35.14 60.49c-16 15.77-34.93 26.87-53.39 31.32-20.29 4.88-37.19 1-47.59-11.1l-5.94-6.5c-31.89-35.15-68-75-107.12-110-44.69-40-86.76-67.95-128.7-85.28-45.18-18.73-81.88-36.06-109.17-51.47-20.93-12-36.35-22.77-46-32.39zm486.34 79.06c-4.17-4.18-8.62-8.35-13.36-12.38-23.83-23.26-55.37-50.13-109-72.83-66.15-27.93-151.85-42.78-254.88-44.41-75.52.85-115.47 10-118.79 27-2.55 13.17 16.54 31.28 56.71 54.04 27.22 15.34 63.78 32.67 108.89 51.33 42.07 17.47 84.36 45.47 129.26 85.7 39.17 35.08 75.38 75 107.27 110.1l5.94 6.51c9.9 11.45 26 15.13 45.47 10.39 17.74-4.31 36.84-15.48 52.32-30.83 17.26-17 29.21-37.55 34.51-59.4s3.89-43.91-4.31-65.83c-7.43-20.43-20.93-40.3-40-59.39z"/><path d="m101.53 69c-8.21-8.2-11.67-15.49-10.4-21.71 3.33-16.62 39.32-25 109.89-25.6 96.59 3.26 177 19.45 238.79 48 51.05 23.61 79.4 50.55 98.43 71.41 53.88 48.09 56.78 92.14 49.85 120.71-4.74 19.3-15.42 37.33-31.05 52.25-14.21 13.65-31.39 23.48-48.43 27.79-20.93 5.23-39.25 1.2-50.28-11-8.41-8.7-17-17.68-25.24-26.37-60.81-64.03-123.74-130.21-198.09-162.03-70.4-30.34-114.52-54.52-133.47-73.45zm424.19 62c-18.6-18.6-45.11-40.16-86.76-59.47-61.59-28.53-141.64-44.62-237.96-47.88-68.52.64-104.8 8.63-107.91 23.9-2.24 11.45 14.09 27.37 48.6 47.31 23.12 13.36 53.88 28.14 94.12 45.47 74.81 32.1 137.88 98.42 198.76 162.56l25.18 26.44c10.74 11.88 27.86 15.56 48.29 10.4 16.62-4.17 33.52-13.86 47.52-27.3 15.27-14.56 25.81-32.31 30.48-51.26 6.93-28 3.89-71.35-49.29-118.72l-.07-.07-.07-.08c-3.18-3.46-6.86-7.28-10.89-11.31z"/><path d="m130.66 70.82c-7-7-10.61-13.58-9.33-19.52 3.11-14.71 35.49-22.06 99.06-22.41 90.09 4.94 164.69 22.27 222 51.4 36.61 18.71 65.16 41.44 87.15 69.65 44.69 41.3 47.09 78.21 41.15 101.83-4.1 16.26-13.29 31.39-26.8 43.91a103.07 103.07 0 0 1 -43 24c-21.5 5.65-40.66 1.91-52.75-10.18l-.85-.85c-14.78-14.5-29.2-29.21-43.13-43.42-53.59-54.55-104.22-106.03-161.85-131.83-43.7-19.4-91.64-42.57-111.65-62.58zm379 59.68c-18.81-18.81-41.3-34.79-68.31-48.51-56.98-28.99-131.35-46.25-221.1-51.27-61.59.36-94.33 7.36-97.16 20.93-5.16 24.26 85.63 64.85 119.79 80 58 25.88 108.68 77.57 162.42 132.3 13.93 14.21 28.35 28.92 43.13 43.41 11.6 12.31 30.41 16.13 51.83 10.54a100.67 100.67 0 0 0 42.22-23.55c13.22-12.23 22.27-27.08 26.3-43 5.8-23.19 3.47-59.32-40.66-100l-.07-.07-.07-.08a229 229 0 0 0 -18.31-20.71z"/><path d="m159.51 72.51c-6.22-6.22-9.33-12-8.13-17.18 2.9-12.94 31.82-19.23 88.24-19.23 83.58 6.64 152.53 25.1 205.07 54.9 42.7 24.18 64.91 50.2 76 67.95 35.71 34.72 37.41 64.56 32.6 83.51-6.72 25.81-30 47.73-59.47 55.65-22.84 6.15-44.34 2.05-57.56-11.17l-.14-.14c-21.64-20.08-41.15-39.46-59.89-58.2-45-44.83-83.79-83.51-126.79-103.73-38.32-18.24-74.24-36.63-89.94-52.33zm336.94 59.19c-35.45-35.43-109.32-82.17-256.97-93.91-54.73 0-83.79 6-86.48 17.89-4.38 19.52 64.07 51.91 97 67.46 43.2 20.44 82.16 59.26 127.28 104.09 18.72 18.77 38.27 38.11 59.91 58.19l.14.14c12.73 12.73 33.59 16.76 55.86 10.75 28.85-7.78 51.76-29.13 58.34-54.37 4.81-18.53 3-47.73-32.1-81.89l-.07-.07-.07-.07a160.5 160.5 0 0 0 -22.84-28.21z"/><path d="m188.43 74.42c-5.43-5.42-8.27-10.53-7.21-15.13 2.76-11.1 28.07-16.33 77.64-16 77.14 8.41 140.43 28 188.23 58.27 17.68 11.17 32.67 23.61 44.69 36.91s17.75 24 20.08 29.27c16.41 17.11 25.1 34.15 25.74 50.77.64 14.36-4.88 27.79-15.91 38.82-12.09 12.09-29.63 20.15-48.15 22-19.52 2-36.92-3.25-48.79-14.71-29.49-25.8-54-50-75.52-71.27-35.15-34.72-62.87-62.16-92.85-77.43l-1.84-1c-22.06-11.31-52.25-26.8-66.11-40.52zm296.07 58.58a224.6 224.6 0 0 0 -38.26-30.19c-47.59-30.2-110.66-49.71-187.45-58.06-47.94-.28-73.54 4.67-76 14.78-3.67 15 44 39.32 72.55 53.89l1.84 1c30.19 15.34 58 42.85 93.27 77.71 21.56 21.28 46 45.39 75.45 71.2 11.59 11.17 28.49 16.19 47.58 14.36 18.11-1.84 35.29-9.69 47.17-21.57 10.68-10.68 16-23.69 15.41-37.62-.7-16.26-9.26-33-25.38-49.85l-.07-.07v-.14c-2.41-5.23-9.48-18.81-26.09-35.43z"/><path d="m217.07 76.47c-4.74-4.73-7.29-9.26-6.15-13.22 2.54-9.33 24.53-13.51 67.24-12.8h.14c48.7 6.93 117.88 23.27 171.19 61.73 15.7 11.32 29.21 24 38.89 36.63 7.71 10 13 20.08 14.71 27.72 29.91 34.72 14 57.13 5.73 65.26-10.61 10.33-27.58 16.83-45.68 17.4-19.37.57-37-5.3-49.57-16.76-38.89-32.38-66.89-60.39-89.38-82.87-24.32-24.33-41.86-41.86-60.45-52.54-1.49-.92-3-1.77-4.6-2.62-15.27-8.62-32.81-18.66-42.07-27.93zm61-24.53c-41.36-.64-63.5 3.25-65.76 11.73-3 10.75 27.37 28.08 47.45 39.53 1.62.92 3.18 1.77 4.59 2.62 18.81 10.75 36.42 28.35 60.81 52.75 22.49 22.48 50.49 50.49 89.45 82.8 12.17 11 29.84 17 48.58 16.33 17.68-.56 34.37-6.92 44.69-17 16.83-16.4 14.71-39.59-6-63.42l-.14-.14-.07-.22c-3.33-15.06-21-40.66-53.11-63.71-29.27-21.07-82.66-48.86-170.48-61.3z"/><path d="m245.49 79.16c-4.31-4.31-6.71-8.41-5.58-12s6.09-6.16 14.71-7.73c9.47-1.69 23.82-2.33 42.78-1.77h.14c80.39 14.78 128.27 43.56 154.36 65.13 30.1 24.89 43.1 49.92 42.42 62.65 16.69 23.33 8.14 37 1.56 43.13-18.17 16.76-63.85 16.76-93.34-8.2-51.48-40.45-80-70.64-100.69-92.63-12.66-13.37-21.78-23-31-29.56-1.49-1.06-3.11-2.12-4.74-3.32-7.42-5-15.41-10.47-20.65-15.7zm51.91-20.22c-35.08-1.13-54 1.84-56.22 8.69-2.33 7 13.22 17.75 25.6 26.31 1.62 1.06 3.18 2.19 4.73 3.32 9.34 6.51 18.46 16.2 31.19 29.63 20.72 22 49.21 52 100.62 92.56 13.08 11.1 31.25 18.24 49.71 19.45 17.39 1.13 33.09-3 41.93-11.11 10.89-10 10.25-24.82-1.77-41.64l-.14-.15v-.28c.71-10.32-10-35.35-41.93-61.87-25.95-21.57-73.68-50.21-153.72-64.91z"/><path d="m318.25 136.51a324.25 324.25 0 0 1 -32.52-37.51 121.14 121.14 0 0 0 -7.85-9.69c-.64-.63-1.2-1.34-1.84-2-5.37-5.8-11-11.81-8.77-16.4 1.77-3.75 8.77-8.49 49.43-6.15h.14c44.12 10.32 81.88 26.44 112.29 47.8 32 22.48 45.89 44.05 51.34 54.87 5.58 11.1 7.42 20.86 5.09 26.87 6.29 13.36 2.05 20.57-2.62 24.25-7.57 6-22.56 7.43-39.95 3.75a129 129 0 0 1 -51.62-24.18c-34-25.25-57.06-45.61-73.12-61.66zm-39.52-47.87a124.44 124.44 0 0 1 7.85 9.82c12.58 16.55 36 47.17 105.5 99 32.17 25.53 75.59 32 90.15 20.43 6.23-4.95 7-12.94 2.19-23.12l-.07-.21.07-.21c2.41-5.66.64-15.2-4.94-26.16-6.16-12.1-42.71-74-162.85-102-30-1.7-45.82.14-48.37 5.52-1.84 4 3.54 9.61 8.63 15.13a11 11 0 0 1 1.84 1.8z"/><path d="m309.27 118.9c-3.74-3.75-7.07-7.35-10-10.75-14.27-16.83-14.27-25.15-14.27-27.93a8.07 8.07 0 0 1 2.69-6.36c5.37-4.67 19.3-5.16 48.36-1.84l.07.07c40.17 11.88 75.38 30.26 101.69 53.17 29.77 25.81 38.46 48.09 40.73 56.43 2.68 9.62 2 17.4-1.91 21.71-.14 4.95-2.2 8.41-5.94 10.18-8.91 4.39-25.6-1.13-38-6.5-16.26-7.08-34.86-18-52.46-31-31.19-22-54.94-41.22-70.93-57.2zm-23.27-38.68c-.07 18.6 31.82 50.63 94.82 95.11 32.25 23.61 74.53 44.69 89.52 37.33 3.54-1.69 5.31-4.88 5.45-9.54v-.12l.14-.14c3.82-4.1 4.45-11.52 1.84-20.93-9.69-35-58.2-84.07-141.71-108.89-28.35-3.32-42.56-2.83-47.58 1.62a6.58 6.58 0 0 0 -2.48 5.56z"/><path d="m300 101.15c-9.83-9.83-14.42-17.25-14-22.63.28-3.25 2.4-5.65 6.44-7.42 6.85-3 20.29-1.77 30.33-.07 11.46 1.84 24.32 5.09 32.53 8.2 44.76 16.9 72.62 40 88.1 56.29 18 19 29.7 40.16 31.33 56.64.92 9.54-1.63 16.61-7.29 20.15-14.14 8.77-36-9.12-61.37-29.7-11.95-9.69-24.26-19.73-37.27-28.5-32.59-22.13-55.43-39.59-68.8-53zm55.3-21.49-.14.42c-15.28-5.8-50.56-13.22-62.3-8.13-3.75 1.62-5.66 3.82-5.87 6.72-1.06 12.09 26.73 37.19 82.52 74.74 13.09 8.84 25.49 18.81 37.35 28.59 25.1 20.44 46.74 38.12 60.38 29.7 5.31-3.32 7.78-10.18 6.93-19.37-1.55-16.33-13.17-37.33-31.11-56.18-15.49-16.33-43.21-39.24-87.82-56.15z"/></g></svg>