<svg enable-background="new 0 0 662.7 354.5" viewBox="0 0 662.7 354.5" xmlns="http://www.w3.org/2000/svg"><g fill="#fff" opacity=".1"><path d="m629.4 0c15.3 0 25.3 3.4 30.1 10.3 6.1 8.8 3.4 23.2-8 42.8-12.3 21.2-35.3 49.2-68.2 83.1-43.6 45-86.4 83.3-127.1 113.9-35.4 26.6-70.5 48.1-104.1 64-59 27.9-105.8 35.3-147.7 39.1-44.9 4.1-83.8-1.2-115.6-15.7-27.7-12.6-49.6-31.9-65.1-57.3-32.3-52.9-28.7-120.5-6.6-155.4 10.4-16.3 24.3-24.4 39.1-22.8 62.9 6.9 118.6 8.7 170.5 5.7 71.5-4.2 134.7-18 187.8-41 38-16.4 93.6-39.1 143-53.4 30.6-8.8 54.6-13.3 71.9-13.3zm-425.1 352-.1-1.2c41.6-3.8 88.2-11.2 146.8-38.9 33.5-15.9 68.4-37.3 103.7-63.8 40.7-30.5 83.4-68.7 126.9-113.6 32.8-33.8 55.6-61.7 67.9-82.7 10.9-18.6 13.6-32.1 8.1-40.1-9.4-13.5-43.7-12.1-99.3 4-49.3 14.3-104.8 36.9-142.7 53.3-53.4 23.1-116.9 37-188.6 41.2-52 3.1-107.9 1.2-170.9-5.7-13.9-1.5-26.9 6.2-36.7 21.7-21.7 34.2-25.1 100.7 6.7 152.7 15.2 25 36.8 43.9 64 56.3 31.5 14.3 69.9 19.5 114.3 15.5z"/><path d="m607.6 19.4c14.1 0 23.3 3.2 27.6 9.5 11.7 17.1-11.4 55-70.6 115.9-77.7 77.9-152.3 132.9-221.8 163.6-56.4 24.9-99.9 30.3-138.5 32.4-39.9 3.3-74.4-1.6-102.6-14.4-24.7-11.2-44.1-28.3-57.8-50.7-9.4-15.5-20.7-41.2-20.8-76.1-.1-24.8 5.9-48.7 16.4-65.5 10.6-17 24.9-25.6 40.2-24.2 114.4 9 234.3 11.3 336-31.8 34.5-14.6 84.8-34.7 128.3-47.1 26.9-7.7 48.2-11.6 63.6-11.6zm-426.7 320.1c7.5 0 15.3-.3 23.3-1 38.4-2.1 81.7-7.5 137.7-32.2 69.2-30.5 143.6-85.4 221.1-163.1 30.3-31.1 51.4-56.7 62.8-76.1 10.1-17.1 12.6-29.5 7.6-36.8-8.5-12.4-38.3-11.4-88.8 2.9-43.4 12.3-93.6 32.4-128 47-102.1 43.3-222.3 41-337.1 32-14.4-1.3-27.9 6.9-38 23.1-10.3 16.5-16.1 39.9-16 64.3.1 19 3.7 47.3 20.5 74.9 13.4 22 32.5 38.8 56.8 49.8 22.1 10.1 48.4 15.2 78.1 15.2z"/><path d="m585.8 38.8c12.9 0 21.3 2.9 25.2 8.7 10.5 15.6-10.8 50.2-65.1 105.8-74.1 71.9-145.6 122.1-212.3 149.2-54.3 22.1-95.8 25.4-129.3 25.8-34.9 2.5-65.1-1.9-89.8-13.2-21.6-9.9-38.7-24.8-50.5-44.3-11.9-19.6-18.1-42.9-17.9-67.6.2-22.5 5.7-43.7 15.6-59.9 10.9-17.8 25.6-27 41.5-25.8l8.8.4c47.4 2.3 101.1 4.9 153.5 2 59.9-3.3 109.4-13.3 151.3-30.7 45.2-18.7 83.4-32.4 113.6-40.8 23.3-6.3 41.8-9.6 55.4-9.6zm-399.8 288c5.9 0 12-.2 18.2-.7 33.3-.4 74.6-3.7 128.6-25.6 66.5-27 137.6-77.1 211.6-148.8 52.8-54 74.6-88.7 64.9-103.1-7.5-11.1-33.8-10.4-78.3 1.9-30.1 8.4-68.2 22-113.3 40.7-42.1 17.4-91.8 27.5-152 30.8-52.5 2.9-106.3.3-153.7-2l-8.8-.4c-15.1-1.1-29.1 7.7-39.5 24.8-9.5 15.6-15.1 37-15.2 58.8-.2 24.2 5.9 47.2 17.6 66.4 11.7 19.1 28.3 33.8 49.6 43.5 19.7 9.2 43.3 13.7 70.3 13.7z"/><path d="m564.1 58.1c11.6 0 19.2 2.7 22.7 8 9.4 14.1-10.1 45.5-59.6 95.8-70.6 66-138.9 111.4-202.8 134.9-52.8 19.4-91.9 20.4-120.1 19.1-72.1 4.1-105.3-25-120.6-50.1-10.3-17-15.5-37.3-15-58.9.4-19.7 5.6-38.8 14.6-53.9 11.1-18.5 26.9-28.6 43.3-27.8 12.1.2 24.5.5 36.5.8 88.3 2.3 179.6 4.6 254.7-25.5 71.2-28.3 119.5-42.4 146.3-42.4zm-343.8 256.1c26.3 0 60.3-3.5 103.4-19.3 63.7-23.4 131.7-68.6 202.1-134.4 48-48.9 68-80.2 59.4-93.2-6.5-9.7-29.3-9.4-67.8.9-25.8 6.9-58 18.2-98.7 34.4-75.6 30.2-167.1 27.9-255.5 25.6-12-.3-24.4-.6-36.5-.9-16-.8-30.7 8.7-41.5 26.8-8.8 14.7-13.9 33.5-14.3 52.9-.5 21.1 4.6 41.1 14.7 57.8 14.9 24.7 47.7 53.2 118.8 49.1h.1.1c4.7.2 10 .3 15.7.3z"/><path d="m542.2 77.4c9.9 0 17.1 2.1 20.4 7.2 8.2 12.6-9.5 40.7-54.2 85.9-67.2 60.2-132.2 100.7-193.3 120.6-39.1 12.7-75.4 16.8-110.9 12.4-60.8 2.4-88.6-22-101.1-42.9-8.6-14.4-12.8-31.6-12.1-50 .6-16.8 5.4-33.7 13.4-47.4 11.2-19.2 27.4-30.1 44.5-30.1h1.2c20.7-.2 41.3 0 61.2.2 76.5.7 148.7 1.3 207.7-21.2 44.6-17.2 94.9-34.7 123.2-34.7zm-310.2 225.8c26.6 0 53.8-4.6 82.6-14 60.8-19.8 125.6-60.2 192.6-120.1 43.3-43.8 61.5-71.9 53.9-83.5-13.5-20.8-106.4 14.7-141.3 28.1-59.3 22.7-131.7 22-208.4 21.3-19.9-.2-40.5-.4-61.2-.2-16.9-.5-32.9 10.1-44.1 29.2-7.9 13.5-12.6 30-13.2 46.5-.7 18 3.4 34.9 11.8 49 12.3 20.5 39.5 44.4 99.5 42h.1.1c9.1 1.1 18.3 1.7 27.6 1.7z"/><path d="m520.6 96.6c8.8 0 15.1 1.9 17.9 6.4 7.1 11.2-8.9 36.1-48.8 76-63.8 54.4-125.6 90.1-183.8 106.2-47.3 13.1-81.4 10.4-101.8 5.7-49.8.7-72.1-19.2-82.1-36-13.5-23-12.5-55 2.7-81.4 11.8-20.5 29.9-32.8 48.6-32.8h.2c29.5-1.1 57-1.2 83.5-1.2 63.5-.1 118.3-.2 163-16.3 40-14.2 78.4-26.6 100.6-26.6zm-280.1 196.4c50.1 0 135.4-19.2 248.1-115.3 38.7-38.7 55-63.5 48.5-73.8-10.7-16.9-82 8.6-116.3 20.9-45 16.1-100 16.2-163.6 16.4-26.5 0-54 .1-83.5 1.2h-.2c-18 0-35.6 11.9-47.1 31.9-14.9 25.9-16 57.2-2.8 79.7 9.7 16.5 31.6 35.9 80.6 35.2h.1.1c8.6 2 20.7 3.8 36.1 3.8z"/><path d="m498.8 115.7c7.7 0 13.3 1.6 15.8 5.6 5.9 9.8-8.3 31.4-43.6 66.2-60.5 48.6-119.1 79.5-174.3 91.9-20.4 4.6-39.8 6.4-57.7 5.5-18-.9-29.5-4.4-34.9-6.5-23.7-.5-41.9-6.4-54.1-17.7-10.6-9.7-16.2-23.1-16.2-38.7 0-17.1 6.7-35.2 18.5-49.6 12.4-15.2 28.4-23.8 44.9-24.1 39.1-2.6 73.5-2.8 103.8-3 49.4-.3 88.4-.5 120.4-10.9l2-.6c23.6-7.6 55.9-18 75.4-18.1zm-250.8 167.9c13.3 0 29.4-1.5 48.4-5.7 55-12.3 113.4-43.1 173.6-91.5 34.1-33.7 48.7-55.3 43.3-64.2-8-13.2-58.9 3.3-89.4 13.2l-2 .6c-32.2 10.5-71.3 10.7-120.9 11-30.3.2-64.6.4-103.7 3-16.1.3-31.6 8.7-43.8 23.5-11.5 14.1-18.1 31.8-18.1 48.6 0 15.1 5.4 28.1 15.7 37.5 12 11 29.9 16.8 53.2 17.3h.1l.1.1c5.4 2 20 6.6 43.5 6.6z"/><path d="m477.1 134.5c6.7 0 11.7 1.4 13.7 5 4.8 8.4-7.8 26.9-38.5 56.6l-.1.1c-39.3 29.5-99.8 66.9-164.7 77.4-19.1 3.1-37.6 3.7-53.4 1.6-12.5-1.6-23.4-5-30-9.2-45.7-3.4-50.3-30.5-50.2-42.1.2-14.8 7.6-31.4 20-44.6 13.3-14.1 29.9-22.4 46.9-23.2 50.4-4.6 90-4.6 121.8-4.6 34.4 0 59.2 0 79.9-5.6 1.7-.4 3.4-.9 5.1-1.4 16.9-4.7 36.4-10 49.5-10zm-25.8 60.5c29.7-28.8 42.6-47.2 38.2-54.8-5.5-9.7-39.2-.5-61.5 5.6-1.8.5-3.5 1-5.1 1.4-20.9 5.7-45.8 5.7-80.3 5.7-31.8 0-71.4 0-121.8 4.7-16.4.8-33.1 9.1-45.9 22.8-12.1 12.9-19.4 29.2-19.6 43.6-.3 23.5 17.6 38.4 49.1 40.6h.2l.2.1c13 8.3 43.6 13.9 82.6 7.5 35.6-5.8 93-23.9 163.9-77.2z"/><path d="m455.1 152.7c6.1 0 10.7 1.2 12.4 4.5 1.7 3.4.1 8.7-4.9 15.9-5.5 7.9-15.2 18.5-29 31.5l-.1.1c-67.3 46.4-121.5 59.9-155.2 63.1-38.9 3.7-65.8-4.8-74.3-14.3-28.3-4.7-31.9-20.4-31.6-29.4 1-24.7 33.3-57 71.8-60.2 65-7.8 106.5-6.6 136.7-5.7 18.4.5 31.7.9 42.8-1 1.8-.3 3.7-.7 5.7-1 8.8-1.7 18.3-3.5 25.7-3.5zm-22.4 51c25.6-24 36.9-39.5 33.6-45.9-3.3-6.6-21.9-3.2-36.7-.5-1.9.4-3.8.7-5.7 1-11.2 2-24.5 1.6-43 1.1-30.2-.9-71.6-2-136.6 5.7-17.1 1.4-35 9.2-48.9 21.4-13.1 11.5-21.3 25.5-21.8 37.5-.6 14.8 10.3 24.8 30.7 28.2h.2l.2.2c6.8 7.8 32.1 17.9 73.4 14.1 33.6-3.1 87.6-16.6 154.6-62.8z"/><path d="m363.1 163.6c23.8 0 39 2 49.5 3.5 5 .7 9 1.2 12.4 1.3.9 0 1.8.1 2.7.1 7.9.3 16.1.6 17.8 5.4 1.4 3.9-.2 12.2-30.6 39.3l-.1.1c-38.5 23.9-76.6 39.2-113.2 45.6-38.5 6.7-63.6 1.3-75.1-2.5-11.8-3.9-20-9.5-22.6-15.4-13.9-5-16-13.1-15.3-19 1.1-9.6 10.7-21.2 25.6-30.9 15.6-10.2 35.1-17.2 53.6-19.4 41.9-6.2 72.6-8.1 95.3-8.1zm61.8 5.9c-3.5-.1-7.4-.7-12.5-1.4-20.6-2.8-58.8-7.9-144.6 4.6-40.8 4.7-76.1 30.8-78.2 49.3-.9 7.9 4.2 14.1 14.8 17.9l.2.1.1.2c2.3 5.7 10.3 11.2 22 15 12.9 4.2 82.5 22.1 187.3-43 22.4-20 32.3-32.5 30.3-38.1-1.5-4.1-9.3-4.3-16.8-4.6-.8.1-1.7.1-2.6 0z"/><path d="m381.9 169.7c5.3 0 10.2.2 14.7.5 22 1.8 27.9 7.7 29.8 9.7s2.8 4.1 2.6 6.4c-.5 7.1-10 17.3-32.9 35.5h-.1c-36.8 20-74.7 31.9-109.5 34.3-39.3 2.8-61.2-6.8-68.7-11.1-8.7-4.9-13.7-10.9-14-16.7-3.4-3.6-4.4-7.5-3-11.4 3.2-9.4 18.9-17.3 31.5-22.3 16.5-6.5 37.4-11.9 59-15.2 37.6-6.5 68-9.7 90.6-9.7zm43.8 10.9c-13.1-13.2-58.3-13.3-134.3-.2-39.5 6.1-84.3 21.1-89.7 36.9-1.3 3.7-.3 7.2 2.9 10.6l.1.1v.2c.2 5.6 5 11.3 13.5 16.1 31.6 17.9 100.6 18.3 177.2-23.2 22.4-17.7 32.1-28.1 32.5-34.8.3-2.1-.5-4-2.2-5.7z"/><path d="m401 175.7c13.9 0 22.4 2 25.9 6.1 2.1 2.5 2.3 5.7.7 9.8-2.7 7-13.1 15.6-21.4 21.5-9.4 6.8-20.8 13.6-28.8 17.2-43.6 19.7-79.6 23.1-102.1 22.5-26.2-.7-49.4-7.4-62.2-17.9-7.4-6.1-10.6-12.9-9.1-19.4 3.8-16.2 31.9-19 64.4-22.4 15.3-1.6 31.1-3.2 46.5-6.2 38.7-7.4 67.2-11.2 86.1-11.2zm-23.9 54.3-.2-.4c14.9-6.7 45.1-26.4 49.8-38.3 1.5-3.8 1.3-6.7-.6-8.9-7.8-9.3-45.2-7.4-111.2 5.5-15.5 3-31.3 4.7-46.6 6.2-32.2 3.3-60 6.1-63.7 21.7-1.4 6.1 1.7 12.7 8.8 18.6 12.6 10.4 35.7 17 61.7 17.7 22.5.6 58.3-2.8 101.8-22.4z"/></g></svg>